<svg width="22" height="22" viewBox="0 0 22 22" fill="none" xmlns="http://www.w3.org/2000/svg">
<g clip-path="url(#clip0_23_146)">
<path d="M10.9999 2.0625C12.7675 2.0625 14.4955 2.58668 15.9653 3.56874C17.435 4.55081 18.5806 5.94665 19.257 7.57977C19.9335 9.21288 20.1105 11.0099 19.7656 12.7436C19.4208 14.4773 18.5696 16.0698 17.3196 17.3198C16.0697 18.5697 14.4772 19.4209 12.7435 19.7658C11.0098 20.1106 9.21276 19.9336 7.57964 19.2572C5.94653 18.5807 4.55068 17.4352 3.56861 15.9654C2.58655 14.4956 2.06237 12.7677 2.06237 11C2.06511 8.63047 3.00762 6.35877 4.68313 4.68326C6.35865 3.00774 8.63034 2.06524 10.9999 2.0625ZM11 6.1875C10.796 6.1875 10.5966 6.24798 10.427 6.3613C10.2574 6.47461 10.1253 6.63567 10.0472 6.82411C9.96916 7.01254 9.94873 7.21989 9.98852 7.41994C10.0283 7.61998 10.1265 7.80373 10.2708 7.94795C10.415 8.09218 10.5987 8.19039 10.7988 8.23018C10.9988 8.26998 11.2062 8.24955 11.3946 8.1715C11.583 8.09345 11.7441 7.96127 11.8574 7.79168C11.9707 7.62209 12.0312 7.42271 12.0312 7.21875C12.0312 7.08332 12.0045 6.94922 11.9527 6.82411C11.9009 6.69899 11.8249 6.58531 11.7292 6.48955C11.6334 6.39378 11.5197 6.31782 11.3946 6.266C11.2695 6.21417 11.1354 6.1875 11 6.1875ZM10.3124 15.8125H10.9999C11.0902 15.8126 11.1796 15.7948 11.263 15.7603C11.3465 15.7257 11.4223 15.6751 11.4861 15.6113C11.55 15.5474 11.6006 15.4716 11.6351 15.3882C11.6697 15.3047 11.6874 15.2153 11.6874 15.125V11C11.8697 11 12.0446 10.9276 12.1735 10.7986C12.3024 10.6697 12.3749 10.4948 12.3749 10.3125C12.3749 10.1302 12.3024 9.9553 12.1735 9.82636C12.0446 9.69743 11.8697 9.625 11.6874 9.625H10.9999C10.9096 9.62495 10.8202 9.64269 10.7367 9.67723C10.6533 9.71176 10.5775 9.7624 10.5136 9.82625C10.4498 9.8901 10.3991 9.96591 10.3646 10.0493C10.3301 10.1328 10.3123 10.2222 10.3124 10.3125V14.4375C10.13 14.4375 9.95517 14.5099 9.82624 14.6389C9.69731 14.7678 9.62487 14.9427 9.62487 15.125C9.62487 15.3073 9.69731 15.4822 9.82624 15.6111C9.95517 15.7401 10.13 15.8125 10.3124 15.8125Z" fill="#999999"/>
</g>
<defs>
<clipPath id="clip0_23_146">
<rect width="22" height="22" fill="white" transform="matrix(-1 0 0 1 22 0)"/>
</clipPath>
</defs>
</svg>
